<svg xmlns="http://www.w3.org/2000/svg" viewBox="0 0 400 400" fill="none" stroke="#2C2E1F" stroke-width="2.5" stroke-linecap="round" stroke-linejoin="round">
  <!-- Realistic cat stretching forward — front low, rear up, like a downward dog -->
  <path d="
    M 85 320
    Q 70 318 60 310
    Q 50 300 55 285
    L 60 250
    Q 62 235 68 220
    Q 72 210 80 205
    Q 90 198 105 195
    L 140 190
    Q 155 188 170 185
    Q 195 180 220 178
    Q 240 176 260 172
    Q 275 168 285 158
    Q 292 150 295 138
    Q 298 125 295 112
    Q 290 98 280 90
    Q 268 80 255 78
    Q 242 76 232 82
    Q 225 88 222 98
    Q 220 108 225 118
    Q 230 128 240 132
    Q 248 134 255 130
  " />
  <!-- Head -->
  <path d="
    M 255 130
    Q 260 125 268 120
    Q 278 114 288 112
    Q 298 110 306 115
    Q 312 120 310 130
    Q 308 138 300 144
    Q 292 148 285 158
  " />
  <!-- Ear left -->
  <path d="M 268 120 Q 258 100 265 85 Q 272 95 278 114" />
  <!-- Ear right -->
  <path d="M 288 112 Q 292 92 305 82 Q 305 95 306 115" />
  <!-- Eye -->
  <circle cx="290" cy="125" r="3" fill="#2C2E1F" stroke="none" />
  <!-- Nose -->
  <circle cx="308" cy="132" r="2" fill="#2C2E1F" stroke="none" />
  <!-- Whiskers -->
  <line x1="310" y1="130" x2="335" y2="124" stroke-width="1.5" />
  <line x1="310" y1="134" x2="338" y2="132" stroke-width="1.5" />
  <line x1="310" y1="138" x2="335" y2="142" stroke-width="1.5" />
  <!-- Front legs stretched out -->
  <path d="M 140 190 Q 135 220 128 260 Q 125 280 118 300 Q 115 315 105 320 Q 95 322 85 320" />
  <path d="M 170 185 Q 168 215 165 250 Q 162 275 158 295 Q 155 312 148 318 Q 140 322 130 318" />
  <!-- Front paws -->
  <path d="M 85 320 L 70 322" stroke-width="2" />
  <path d="M 130 318 L 115 320" stroke-width="2" />
  <!-- Rear haunches (elevated) -->
  <path d="M 220 178 Q 205 175 195 170 Q 180 162 172 150 Q 165 138 168 125 Q 172 115 180 112" />
  <!-- Hind legs -->
  <path d="M 180 112 Q 178 135 172 160 Q 168 180 160 210 Q 155 235 148 260 Q 145 278 150 290 Q 155 298 165 295" />
  <path d="M 168 125 Q 158 145 148 175 Q 140 200 135 230 Q 130 258 128 278 Q 128 292 138 295" />
  <!-- Hind paws -->
  <path d="M 165 295 L 175 298" stroke-width="2" />
  <path d="M 138 295 L 148 298" stroke-width="2" />
  <!-- Tail (curving up from rear) -->
  <path d="M 172 150 Q 160 130 145 105 Q 130 80 120 60 Q 115 50 125 48 Q 135 50 140 60" stroke-width="2.5" />
</svg>
