<svg xmlns="http://www.w3.org/2000/svg" viewBox="0 0 400 400" fill="none" stroke="#2C2E1F" stroke-width="2.5" stroke-linecap="round" stroke-linejoin="round">
  <!-- Realistic cat sitting with one paw raised — like batting at something -->
  <!-- Back/spine contour -->
  <path d="
    M 155 340
    Q 150 320 148 300
    Q 145 275 148 250
    Q 152 225 160 205
    Q 170 185 185 170
    Q 195 160 205 155
    Q 215 150 220 148
  " />
  <!-- Front chest contour -->
  <path d="
    M 245 340
    Q 248 320 250 295
    Q 252 270 250 248
    Q 248 228 242 212
    Q 235 198 225 188
    Q 218 182 215 178
  " />
  <!-- Head -->
  <path d="
    M 220 148
    Q 228 142 235 140
    Q 245 138 252 142
    Q 258 148 258 158
    Q 256 168 248 175
    Q 240 180 230 182
    Q 222 183 215 178
  " />
  <!-- Ear left -->
  <path d="M 220 148 Q 212 128 218 110 Q 226 122 228 142" />
  <!-- Ear right -->
  <path d="M 245 138 Q 250 118 262 108 Q 260 122 258 142" />
  <!-- Eye -->
  <circle cx="240" cy="152" r="4" fill="#2C2E1F" stroke="none" />
  <!-- Nose -->
  <circle cx="255" cy="162" r="2" fill="#2C2E1F" stroke="none" />
  <!-- Whiskers -->
  <line x1="257" y1="158" x2="285" y2="150" stroke-width="1.5" />
  <line x1="258" y1="162" x2="288" y2="160" stroke-width="1.5" />
  <line x1="257" y1="166" x2="285" y2="172" stroke-width="1.5" />
  <!-- Raised paw (left, reaching up) -->
  <path d="M 205 155 Q 185 140 170 120 Q 160 105 155 90 Q 152 80 148 75" stroke-width="2.5" />
  <!-- Paw digits spread -->
  <path d="M 148 75 Q 142 68 138 62" stroke-width="2" />
  <path d="M 148 75 Q 145 65 144 58" stroke-width="2" />
  <path d="M 148 75 Q 150 65 152 58" stroke-width="2" />
  <!-- Right front leg (resting) -->
  <path d="M 242 212 Q 248 240 252 270 Q 254 290 255 305 Q 255 320 258 332 Q 260 340 265 342" />
  <path d="M 265 342 L 272 342" stroke-width="2" />
  <!-- Hind legs tucked -->
  <path d="M 148 300 Q 135 310 125 325 Q 118 335 120 340 Q 125 345 135 342" />
  <path d="M 135 342 L 145 340" stroke-width="2" />
  <path d="M 250 295 Q 265 310 275 325 Q 280 335 278 340 Q 273 345 265 342" />
  <!-- Belly line -->
  <path d="M 155 340 Q 180 350 210 348 Q 235 345 245 340" stroke-width="1.5" />
  <!-- Tail (wrapping around) -->
  <path d="M 148 250 Q 120 240 100 250 Q 85 260 80 275 Q 78 288 88 295 Q 100 298 110 290" stroke-width="2.5" />
</svg>
